<?xml version="1.0" encoding="UTF-8" standalone="no"?>
<!DOCTYPE svg PUBLIC "-//W3C//DTD SVG 1.1//EN"
 "http://www.w3.org/Graphics/SVG/1.1/DTD/svg11.dtd">
<!-- Generated by graphviz version 2.47.0 (20210316.0004)
 -->
<!-- Title: dependencies Pages: 1 -->
<svg width="1154pt" height="284pt"
 viewBox="0.00 0.00 1154.00 284.00" xmlns="http://www.w3.org/2000/svg" xmlns:xlink="http://www.w3.org/1999/xlink">
<g id="graph0" class="graph" transform="scale(1 1) rotate(0) translate(4 280)">
<title>dependencies</title>
<polygon fill="white" stroke="transparent" points="-4,4 -4,-280 1150,-280 1150,4 -4,4"/>
<text text-anchor="start" x="552.01" y="-42.4" font-family="Times-12" font-weight="bold" font-size="14.00">Legend</text>
<polygon fill="#ffffb3" stroke="transparent" points="339,-10 339,-30 359,-30 359,-10 339,-10"/>
<text text-anchor="start" x="362.63" y="-15.4" font-family="Times-12" font-size="14.00"> &#160;Declarations</text>
<polygon fill="#8dd3c7" stroke="transparent" points="452,-10 452,-30 472,-30 472,-10 452,-10"/>
<text text-anchor="start" x="475.73" y="-15.4" font-family="Times-12" font-size="14.00"> &#160;Module</text>
<polygon fill="#80b1d3" stroke="transparent" points="538,-10 538,-30 558,-30 558,-10 538,-10"/>
<text text-anchor="start" x="561.78" y="-15.4" font-family="Times-12" font-size="14.00"> &#160;Bootstrap</text>
<polygon fill="#fdb462" stroke="transparent" points="635,-10 635,-30 655,-30 655,-10 635,-10"/>
<text text-anchor="start" x="658.67" y="-15.4" font-family="Times-12" font-size="14.00"> &#160;Providers</text>
<polygon fill="#fb8072" stroke="transparent" points="731,-10 731,-30 751,-30 751,-10 731,-10"/>
<text text-anchor="start" x="754.73" y="-15.4" font-family="Times-12" font-size="14.00"> &#160;Exports</text>
<g id="clust1" class="cluster">
<title>cluster_AtomicDesignModule</title>
<polygon fill="none" stroke="black" stroke-dasharray="1,5" points="8,-70 8,-268 1138,-268 1138,-70 8,-70"/>
</g>
<g id="clust2" class="cluster">
<title>cluster_AtomicDesignModule_declarations</title>
<polygon fill="none" stroke="black" points="108,-78 108,-130 1130,-130 1130,-78 108,-78"/>
</g>
<g id="clust10" class="cluster">
<title>cluster_AtomicDesignModule_exports</title>
<polygon fill="none" stroke="black" points="52,-208 52,-260 1094,-260 1094,-208 52,-208"/>
</g>
<g id="clust9" class="cluster">
<title>cluster_AtomicDesignModule_imports</title>
<polygon fill="none" stroke="black" points="16,-78 16,-130 100,-130 100,-78 16,-78"/>
</g>
<!-- FormAdvancedSearchComponent -->
<g id="node1" class="node">
<title>FormAdvancedSearchComponent</title>
<polygon fill="#ffffb3" stroke="black" points="1122,-122 916,-122 916,-86 1122,-86 1122,-122"/>
<text text-anchor="middle" x="1019" y="-99.8" font-family="Times,serif" font-size="14.00">FormAdvancedSearchComponent</text>
</g>
<!-- AtomicDesignModule -->
<g id="node7" class="node">
<title>AtomicDesignModule</title>
<polygon fill="#8dd3c7" stroke="black" points="551.7,-187 548.7,-191 527.7,-191 524.7,-187 410.3,-187 410.3,-151 551.7,-151 551.7,-187"/>
<text text-anchor="middle" x="481" y="-164.8" font-family="Times,serif" font-size="14.00">AtomicDesignModule</text>
</g>
<!-- FormAdvancedSearchComponent&#45;&gt;AtomicDesignModule -->
<g id="edge1" class="edge">
<title>FormAdvancedSearchComponent&#45;&gt;AtomicDesignModule</title>
<path fill="none" stroke="black" d="M1000.88,-122.27C1000.88,-140.56 1000.88,-166 1000.88,-166 1000.88,-166 561.65,-166 561.65,-166"/>
<polygon fill="black" stroke="black" points="561.65,-162.5 551.65,-166 561.65,-169.5 561.65,-162.5"/>
</g>
<!-- LoaderComponent -->
<g id="node2" class="node">
<title>LoaderComponent</title>
<polygon fill="#ffffb3" stroke="black" points="897.47,-122 776.53,-122 776.53,-86 897.47,-86 897.47,-122"/>
<text text-anchor="middle" x="837" y="-99.8" font-family="Times,serif" font-size="14.00">LoaderComponent</text>
</g>
<!-- LoaderComponent&#45;&gt;AtomicDesignModule -->
<g id="edge2" class="edge">
<title>LoaderComponent&#45;&gt;AtomicDesignModule</title>
<path fill="none" stroke="black" d="M817.38,-122.01C817.38,-138.05 817.38,-159 817.38,-159 817.38,-159 561.93,-159 561.93,-159"/>
<polygon fill="black" stroke="black" points="561.93,-155.5 551.93,-159 561.93,-162.5 561.93,-155.5"/>
</g>
<!-- ModalNewModifiedComponent -->
<g id="node3" class="node">
<title>ModalNewModifiedComponent</title>
<polygon fill="#ffffb3" stroke="black" points="758.41,-122 561.59,-122 561.59,-86 758.41,-86 758.41,-122"/>
<text text-anchor="middle" x="660" y="-99.8" font-family="Times,serif" font-size="14.00">ModalNewModifiedComponent</text>
</g>
<!-- ModalNewModifiedComponent&#45;&gt;AtomicDesignModule -->
<g id="edge3" class="edge">
<title>ModalNewModifiedComponent&#45;&gt;AtomicDesignModule</title>
<path fill="none" stroke="black" d="M561.65,-104C553.27,-104 547.91,-104 547.91,-104 547.91,-104 547.91,-140.89 547.91,-140.89"/>
<polygon fill="black" stroke="black" points="544.41,-140.89 547.91,-150.89 551.41,-140.89 544.41,-140.89"/>
</g>
<!-- SideBarComponent -->
<g id="node4" class="node">
<title>SideBarComponent</title>
<polygon fill="#ffffb3" stroke="black" points="544.43,-122 417.57,-122 417.57,-86 544.43,-86 544.43,-122"/>
<text text-anchor="middle" x="481" y="-99.8" font-family="Times,serif" font-size="14.00">SideBarComponent</text>
</g>
<!-- SideBarComponent&#45;&gt;AtomicDesignModule -->
<g id="edge4" class="edge">
<title>SideBarComponent&#45;&gt;AtomicDesignModule</title>
<path fill="none" stroke="black" d="M481,-122.11C481,-122.11 481,-140.99 481,-140.99"/>
<polygon fill="black" stroke="black" points="477.5,-140.99 481,-150.99 484.5,-140.99 477.5,-140.99"/>
</g>
<!-- TableCrudComponent -->
<g id="node5" class="node">
<title>TableCrudComponent</title>
<polygon fill="#ffffb3" stroke="black" points="399.7,-122 258.3,-122 258.3,-86 399.7,-86 399.7,-122"/>
<text text-anchor="middle" x="329" y="-99.8" font-family="Times,serif" font-size="14.00">TableCrudComponent</text>
</g>
<!-- TableCrudComponent&#45;&gt;AtomicDesignModule -->
<g id="edge5" class="edge">
<title>TableCrudComponent&#45;&gt;AtomicDesignModule</title>
<path fill="none" stroke="black" d="M399.66,-104C408.26,-104 414.09,-104 414.09,-104 414.09,-104 414.09,-140.89 414.09,-140.89"/>
<polygon fill="black" stroke="black" points="410.59,-140.89 414.09,-150.89 417.59,-140.89 410.59,-140.89"/>
</g>
<!-- TopBarComponent -->
<g id="node6" class="node">
<title>TopBarComponent</title>
<polygon fill="#ffffb3" stroke="black" points="240.1,-122 115.9,-122 115.9,-86 240.1,-86 240.1,-122"/>
<text text-anchor="middle" x="178" y="-99.8" font-family="Times,serif" font-size="14.00">TopBarComponent</text>
</g>
<!-- TopBarComponent&#45;&gt;AtomicDesignModule -->
<g id="edge6" class="edge">
<title>TopBarComponent&#45;&gt;AtomicDesignModule</title>
<path fill="none" stroke="black" d="M222.85,-122.01C222.85,-138.05 222.85,-159 222.85,-159 222.85,-159 400.12,-159 400.12,-159"/>
<polygon fill="black" stroke="black" points="400.12,-162.5 410.12,-159 400.12,-155.5 400.12,-162.5"/>
</g>
<!-- FormAdvancedSearchComponent  -->
<g id="node9" class="node">
<title>FormAdvancedSearchComponent </title>
<polygon fill="#fb8072" stroke="black" points="1086,-252 876,-252 876,-216 1086,-216 1086,-252"/>
<text text-anchor="middle" x="981" y="-229.8" font-family="Times,serif" font-size="14.00">FormAdvancedSearchComponent </text>
</g>
<!-- AtomicDesignModule&#45;&gt;FormAdvancedSearchComponent  -->
<g id="edge8" class="edge">
<title>AtomicDesignModule&#45;&gt;FormAdvancedSearchComponent </title>
<path fill="none" stroke="black" stroke-dasharray="5,2" d="M551.68,-173C667.92,-173 886.74,-173 886.74,-173 886.74,-173 886.74,-205.7 886.74,-205.7"/>
<polygon fill="black" stroke="black" points="883.24,-205.7 886.74,-215.7 890.24,-205.7 883.24,-205.7"/>
</g>
<!-- LoaderComponent  -->
<g id="node10" class="node">
<title>LoaderComponent </title>
<polygon fill="#fb8072" stroke="black" points="858.48,-252 733.52,-252 733.52,-216 858.48,-216 858.48,-252"/>
<text text-anchor="middle" x="796" y="-229.8" font-family="Times,serif" font-size="14.00">LoaderComponent </text>
</g>
<!-- AtomicDesignModule&#45;&gt;LoaderComponent  -->
<g id="edge9" class="edge">
<title>AtomicDesignModule&#45;&gt;LoaderComponent </title>
<path fill="none" stroke="black" stroke-dasharray="5,2" d="M551.66,-180C630.16,-180 745.98,-180 745.98,-180 745.98,-180 745.98,-205.72 745.98,-205.72"/>
<polygon fill="black" stroke="black" points="742.48,-205.72 745.98,-215.72 749.48,-205.72 742.48,-205.72"/>
</g>
<!-- ModalNewModifiedComponent  -->
<g id="node11" class="node">
<title>ModalNewModifiedComponent </title>
<polygon fill="#fb8072" stroke="black" points="715.91,-252 516.09,-252 516.09,-216 715.91,-216 715.91,-252"/>
<text text-anchor="middle" x="616" y="-229.8" font-family="Times,serif" font-size="14.00">ModalNewModifiedComponent </text>
</g>
<!-- AtomicDesignModule&#45;&gt;ModalNewModifiedComponent  -->
<g id="edge10" class="edge">
<title>AtomicDesignModule&#45;&gt;ModalNewModifiedComponent </title>
<path fill="none" stroke="black" stroke-dasharray="5,2" d="M533.82,-187.11C533.82,-187.11 533.82,-205.99 533.82,-205.99"/>
<polygon fill="black" stroke="black" points="530.32,-205.99 533.82,-215.99 537.32,-205.99 530.32,-205.99"/>
</g>
<!-- SideBarComponent  -->
<g id="node12" class="node">
<title>SideBarComponent </title>
<polygon fill="#fb8072" stroke="black" points="497.93,-252 368.07,-252 368.07,-216 497.93,-216 497.93,-252"/>
<text text-anchor="middle" x="433" y="-229.8" font-family="Times,serif" font-size="14.00">SideBarComponent </text>
</g>
<!-- AtomicDesignModule&#45;&gt;SideBarComponent  -->
<g id="edge11" class="edge">
<title>AtomicDesignModule&#45;&gt;SideBarComponent </title>
<path fill="none" stroke="black" stroke-dasharray="5,2" d="M454.18,-187.11C454.18,-187.11 454.18,-205.99 454.18,-205.99"/>
<polygon fill="black" stroke="black" points="450.68,-205.99 454.18,-215.99 457.68,-205.99 450.68,-205.99"/>
</g>
<!-- TableCrudComponent  -->
<g id="node13" class="node">
<title>TableCrudComponent </title>
<polygon fill="#fb8072" stroke="black" points="350.2,-252 205.8,-252 205.8,-216 350.2,-216 350.2,-252"/>
<text text-anchor="middle" x="278" y="-229.8" font-family="Times,serif" font-size="14.00">TableCrudComponent </text>
</g>
<!-- AtomicDesignModule&#45;&gt;TableCrudComponent  -->
<g id="edge12" class="edge">
<title>AtomicDesignModule&#45;&gt;TableCrudComponent </title>
<path fill="none" stroke="black" stroke-dasharray="5,2" d="M410.18,-180C361.04,-180 304.38,-180 304.38,-180 304.38,-180 304.38,-205.72 304.38,-205.72"/>
<polygon fill="black" stroke="black" points="300.88,-205.72 304.38,-215.72 307.88,-205.72 300.88,-205.72"/>
</g>
<!-- TopBarComponent  -->
<g id="node14" class="node">
<title>TopBarComponent </title>
<polygon fill="#fb8072" stroke="black" points="187.6,-252 60.4,-252 60.4,-216 187.6,-216 187.6,-252"/>
<text text-anchor="middle" x="124" y="-229.8" font-family="Times,serif" font-size="14.00">TopBarComponent </text>
</g>
<!-- AtomicDesignModule&#45;&gt;TopBarComponent  -->
<g id="edge13" class="edge">
<title>AtomicDesignModule&#45;&gt;TopBarComponent </title>
<path fill="none" stroke="black" stroke-dasharray="5,2" d="M410.39,-173C313.69,-173 151.88,-173 151.88,-173 151.88,-173 151.88,-205.7 151.88,-205.7"/>
<polygon fill="black" stroke="black" points="148.38,-205.7 151.88,-215.7 155.38,-205.7 148.38,-205.7"/>
</g>
<!-- DatePipe -->
<g id="node8" class="node">
<title>DatePipe</title>
<polygon fill="#8dd3c7" stroke="black" points="91.81,-122 88.81,-126 67.81,-126 64.81,-122 24.19,-122 24.19,-86 91.81,-86 91.81,-122"/>
<text text-anchor="middle" x="58" y="-99.8" font-family="Times,serif" font-size="14.00">DatePipe</text>
</g>
<!-- DatePipe&#45;&gt;AtomicDesignModule -->
<g id="edge7" class="edge">
<title>DatePipe&#45;&gt;AtomicDesignModule</title>
<path fill="none" stroke="black" d="M75.93,-122.27C75.93,-140.56 75.93,-166 75.93,-166 75.93,-166 399.98,-166 399.98,-166"/>
<polygon fill="black" stroke="black" points="399.98,-169.5 409.98,-166 399.98,-162.5 399.98,-169.5"/>
</g>
</g>
</svg>
