<?xml version="1.0" encoding="UTF-8" standalone="no"?>
<!DOCTYPE svg PUBLIC "-//W3C//DTD SVG 1.1//EN"
 "http://www.w3.org/Graphics/SVG/1.1/DTD/svg11.dtd">
<!-- Generated by graphviz version 2.47.0 (20210316.0004)
 -->
<!-- Title: dependencies Pages: 1 -->
<svg width="936pt" height="284pt"
 viewBox="0.00 0.00 936.00 284.00" xmlns="http://www.w3.org/2000/svg" xmlns:xlink="http://www.w3.org/1999/xlink">
<g id="graph0" class="graph" transform="scale(1 1) rotate(0) translate(4 280)">
<title>dependencies</title>
<polygon fill="white" stroke="transparent" points="-4,4 -4,-280 932,-280 932,4 -4,4"/>
<text text-anchor="start" x="443.01" y="-42.4" font-family="Times-12" font-weight="bold" font-size="14.00">Legend</text>
<polygon fill="#ffffb3" stroke="transparent" points="230,-10 230,-30 250,-30 250,-10 230,-10"/>
<text text-anchor="start" x="253.63" y="-15.4" font-family="Times-12" font-size="14.00"> &#160;Declarations</text>
<polygon fill="#8dd3c7" stroke="transparent" points="343,-10 343,-30 363,-30 363,-10 343,-10"/>
<text text-anchor="start" x="366.73" y="-15.4" font-family="Times-12" font-size="14.00"> &#160;Module</text>
<polygon fill="#80b1d3" stroke="transparent" points="429,-10 429,-30 449,-30 449,-10 429,-10"/>
<text text-anchor="start" x="452.78" y="-15.4" font-family="Times-12" font-size="14.00"> &#160;Bootstrap</text>
<polygon fill="#fdb462" stroke="transparent" points="526,-10 526,-30 546,-30 546,-10 526,-10"/>
<text text-anchor="start" x="549.67" y="-15.4" font-family="Times-12" font-size="14.00"> &#160;Providers</text>
<polygon fill="#fb8072" stroke="transparent" points="622,-10 622,-30 642,-30 642,-10 622,-10"/>
<text text-anchor="start" x="645.73" y="-15.4" font-family="Times-12" font-size="14.00"> &#160;Exports</text>
<g id="clust1" class="cluster">
<title>cluster_AppModule</title>
<polygon fill="none" stroke="black" stroke-dasharray="1,5" points="8,-70 8,-268 920,-268 920,-70 8,-70"/>
</g>
<g id="clust8" class="cluster">
<title>cluster_AppModule_providers</title>
<polygon fill="none" stroke="black" points="726,-78 726,-130 912,-130 912,-78 726,-78"/>
</g>
<g id="clust5" class="cluster">
<title>cluster_AppModule_imports</title>
<polygon fill="none" stroke="black" points="298,-78 298,-130 718,-130 718,-78 298,-78"/>
</g>
<g id="clust2" class="cluster">
<title>cluster_AppModule_declarations</title>
<polygon fill="none" stroke="black" points="16,-78 16,-130 290,-130 290,-78 16,-78"/>
</g>
<g id="clust7" class="cluster">
<title>cluster_AppModule_bootstrap</title>
<polygon fill="none" stroke="black" points="362,-208 362,-260 486,-260 486,-208 362,-208"/>
</g>
<!-- AppComponent -->
<g id="node1" class="node">
<title>AppComponent</title>
<polygon fill="#ffffb3" stroke="black" points="281.94,-122 176.06,-122 176.06,-86 281.94,-86 281.94,-122"/>
<text text-anchor="middle" x="229" y="-99.8" font-family="Times,serif" font-size="14.00">AppComponent</text>
</g>
<!-- AppModule -->
<g id="node3" class="node">
<title>AppModule</title>
<polygon fill="#8dd3c7" stroke="black" points="465.66,-187 462.66,-191 441.66,-191 438.66,-187 382.34,-187 382.34,-151 465.66,-151 465.66,-187"/>
<text text-anchor="middle" x="424" y="-164.8" font-family="Times,serif" font-size="14.00">AppModule</text>
</g>
<!-- AppComponent&#45;&gt;AppModule -->
<g id="edge1" class="edge">
<title>AppComponent&#45;&gt;AppModule</title>
<path fill="none" stroke="black" d="M229,-122.02C229,-139.37 229,-163 229,-163 229,-163 372.17,-163 372.17,-163"/>
<polygon fill="black" stroke="black" points="372.17,-166.5 382.17,-163 372.17,-159.5 372.17,-166.5"/>
</g>
<!-- AppMainComponent -->
<g id="node2" class="node">
<title>AppMainComponent</title>
<polygon fill="#ffffb3" stroke="black" points="158.49,-122 23.51,-122 23.51,-86 158.49,-86 158.49,-122"/>
<text text-anchor="middle" x="91" y="-99.8" font-family="Times,serif" font-size="14.00">AppMainComponent</text>
</g>
<!-- AppMainComponent&#45;&gt;AppModule -->
<g id="edge2" class="edge">
<title>AppMainComponent&#45;&gt;AppModule</title>
<path fill="none" stroke="black" d="M91,-122.28C91,-143.32 91,-175 91,-175 91,-175 372.16,-175 372.16,-175"/>
<polygon fill="black" stroke="black" points="372.16,-178.5 382.16,-175 372.16,-171.5 372.16,-178.5"/>
</g>
<!-- AppComponent  -->
<g id="node7" class="node">
<title>AppComponent </title>
<polygon fill="#80b1d3" stroke="black" points="478.44,-252 369.56,-252 369.56,-216 478.44,-216 478.44,-252"/>
<text text-anchor="middle" x="424" y="-229.8" font-family="Times,serif" font-size="14.00">AppComponent </text>
</g>
<!-- AppModule&#45;&gt;AppComponent  -->
<g id="edge6" class="edge">
<title>AppModule&#45;&gt;AppComponent </title>
<path fill="none" stroke="black" stroke-dasharray="1,5" d="M424,-187.11C424,-187.11 424,-205.99 424,-205.99"/>
<polygon fill="black" stroke="black" points="420.5,-205.99 424,-215.99 427.5,-205.99 420.5,-205.99"/>
</g>
<!-- AppRoutingModule -->
<g id="node4" class="node">
<title>AppRoutingModule</title>
<polygon fill="#8dd3c7" stroke="black" points="710.27,-122 707.27,-126 686.27,-126 683.27,-122 581.73,-122 581.73,-86 710.27,-86 710.27,-122"/>
<text text-anchor="middle" x="646" y="-99.8" font-family="Times,serif" font-size="14.00">AppRoutingModule</text>
</g>
<!-- AppRoutingModule&#45;&gt;AppModule -->
<g id="edge3" class="edge">
<title>AppRoutingModule&#45;&gt;AppModule</title>
<path fill="none" stroke="black" d="M646,-122.02C646,-139.37 646,-163 646,-163 646,-163 475.76,-163 475.76,-163"/>
<polygon fill="black" stroke="black" points="475.76,-159.5 465.76,-163 475.76,-166.5 475.76,-159.5"/>
</g>
<!-- AtomicDesignModule -->
<g id="node5" class="node">
<title>AtomicDesignModule</title>
<polygon fill="#8dd3c7" stroke="black" points="563.7,-122 560.7,-126 539.7,-126 536.7,-122 422.3,-122 422.3,-86 563.7,-86 563.7,-122"/>
<text text-anchor="middle" x="493" y="-99.8" font-family="Times,serif" font-size="14.00">AtomicDesignModule</text>
</g>
<!-- AtomicDesignModule&#45;&gt;AppModule -->
<g id="edge4" class="edge">
<title>AtomicDesignModule&#45;&gt;AppModule</title>
<path fill="none" stroke="black" d="M444.11,-122.11C444.11,-122.11 444.11,-140.99 444.11,-140.99"/>
<polygon fill="black" stroke="black" points="440.61,-140.99 444.11,-150.99 447.61,-140.99 440.61,-140.99"/>
</g>
<!-- SharedModule -->
<g id="node6" class="node">
<title>SharedModule</title>
<polygon fill="#8dd3c7" stroke="black" points="404.42,-122 401.42,-126 380.42,-126 377.42,-122 305.58,-122 305.58,-86 404.42,-86 404.42,-122"/>
<text text-anchor="middle" x="355" y="-99.8" font-family="Times,serif" font-size="14.00">SharedModule</text>
</g>
<!-- SharedModule&#45;&gt;AppModule -->
<g id="edge5" class="edge">
<title>SharedModule&#45;&gt;AppModule</title>
<path fill="none" stroke="black" d="M393.19,-122.11C393.19,-122.11 393.19,-140.99 393.19,-140.99"/>
<polygon fill="black" stroke="black" points="389.69,-140.99 393.19,-150.99 396.69,-140.99 389.69,-140.99"/>
</g>
<!-- RequestInterceptor -->
<g id="node8" class="node">
<title>RequestInterceptor</title>
<ellipse fill="#fdb462" stroke="black" cx="819" cy="-104" rx="84.51" ry="18"/>
<text text-anchor="middle" x="819" y="-99.8" font-family="Times,serif" font-size="14.00">RequestInterceptor</text>
</g>
<!-- RequestInterceptor&#45;&gt;AppModule -->
<g id="edge7" class="edge">
<title>RequestInterceptor&#45;&gt;AppModule</title>
<path fill="none" stroke="black" d="M819,-122.28C819,-143.32 819,-175 819,-175 819,-175 475.9,-175 475.9,-175"/>
<polygon fill="black" stroke="black" points="475.9,-171.5 465.9,-175 475.9,-178.5 475.9,-171.5"/>
</g>
</g>
</svg>
