<?xml version="1.0" encoding="UTF-8" standalone="no"?>
<!DOCTYPE svg PUBLIC "-//W3C//DTD SVG 1.1//EN"
 "http://www.w3.org/Graphics/SVG/1.1/DTD/svg11.dtd">
<!-- Generated by graphviz version 2.47.0 (20210316.0004)
 -->
<!-- Title: dependencies Pages: 1 -->
<svg width="2204pt" height="431pt"
 viewBox="0.00 0.00 2204.00 431.00" xmlns="http://www.w3.org/2000/svg" xmlns:xlink="http://www.w3.org/1999/xlink">
<g id="graph0" class="graph" transform="scale(1 1) rotate(0) translate(4 427)">
<title>dependencies</title>
<polygon fill="white" stroke="transparent" points="-4,4 -4,-427 2200,-427 2200,4 -4,4"/>
<text text-anchor="start" x="1077.01" y="-42.4" font-family="Times-12" font-weight="bold" font-size="14.00">Legend</text>
<polygon fill="#ffffb3" stroke="transparent" points="864,-10 864,-30 884,-30 884,-10 864,-10"/>
<text text-anchor="start" x="887.63" y="-15.4" font-family="Times-12" font-size="14.00"> &#160;Declarations</text>
<polygon fill="#8dd3c7" stroke="transparent" points="977,-10 977,-30 997,-30 997,-10 977,-10"/>
<text text-anchor="start" x="1000.73" y="-15.4" font-family="Times-12" font-size="14.00"> &#160;Module</text>
<polygon fill="#80b1d3" stroke="transparent" points="1063,-10 1063,-30 1083,-30 1083,-10 1063,-10"/>
<text text-anchor="start" x="1086.78" y="-15.4" font-family="Times-12" font-size="14.00"> &#160;Bootstrap</text>
<polygon fill="#fdb462" stroke="transparent" points="1160,-10 1160,-30 1180,-30 1180,-10 1160,-10"/>
<text text-anchor="start" x="1183.67" y="-15.4" font-family="Times-12" font-size="14.00"> &#160;Providers</text>
<polygon fill="#fb8072" stroke="transparent" points="1256,-10 1256,-30 1276,-30 1276,-10 1256,-10"/>
<text text-anchor="start" x="1279.73" y="-15.4" font-family="Times-12" font-size="14.00"> &#160;Exports</text>
<g id="clust1" class="cluster">
<title>cluster_AppModule</title>
<polygon fill="none" stroke="black" stroke-dasharray="1,5" points="799,-146 799,-415 1595,-415 1595,-146 799,-146"/>
</g>
<g id="clust2" class="cluster">
<title>cluster_AppModule_declarations</title>
<polygon fill="none" stroke="black" points="1313,-219 1313,-271 1587,-271 1587,-219 1313,-219"/>
</g>
<g id="clust5" class="cluster">
<title>cluster_AppModule_imports</title>
<polygon fill="none" stroke="black" points="1001,-154 1001,-271 1305,-271 1305,-154 1001,-154"/>
</g>
<g id="clust7" class="cluster">
<title>cluster_AppModule_bootstrap</title>
<polygon fill="none" stroke="black" points="1152,-355 1152,-407 1276,-407 1276,-355 1152,-355"/>
</g>
<g id="clust8" class="cluster">
<title>cluster_AppModule_providers</title>
<polygon fill="none" stroke="black" points="807,-219 807,-271 993,-271 993,-219 807,-219"/>
</g>
<g id="clust15" class="cluster">
<title>cluster_AtomicDesignModule</title>
<polygon fill="none" stroke="black" stroke-dasharray="1,5" points="8,-70 8,-138 2188,-138 2188,-70 8,-70"/>
</g>
<g id="clust16" class="cluster">
<title>cluster_AtomicDesignModule_declarations</title>
<polygon fill="none" stroke="black" points="1066,-78 1066,-130 2088,-130 2088,-78 1066,-78"/>
</g>
<g id="clust23" class="cluster">
<title>cluster_AtomicDesignModule_imports</title>
<polygon fill="none" stroke="black" points="2096,-78 2096,-130 2180,-130 2180,-78 2096,-78"/>
</g>
<g id="clust24" class="cluster">
<title>cluster_AtomicDesignModule_exports</title>
<polygon fill="none" stroke="black" points="16,-78 16,-130 1058,-130 1058,-78 16,-78"/>
</g>
<g id="clust27" class="cluster">
<title>cluster_PagesModule</title>
<polygon fill="none" stroke="black" stroke-dasharray="1,5" points="355,-211 355,-339 791,-339 791,-211 355,-211"/>
</g>
<g id="clust28" class="cluster">
<title>cluster_PagesModule_declarations</title>
<polygon fill="none" stroke="black" points="525,-219 525,-271 783,-271 783,-219 525,-219"/>
</g>
<g id="clust31" class="cluster">
<title>cluster_PagesModule_imports</title>
<polygon fill="none" stroke="black" points="363,-219 363,-271 517,-271 517,-219 363,-219"/>
</g>
<g id="clust41" class="cluster">
<title>cluster_SharedModule</title>
<polygon fill="none" stroke="black" stroke-dasharray="1,5" points="1603,-279 1603,-347 1868,-347 1868,-279 1603,-279"/>
</g>
<g id="clust44" class="cluster">
<title>cluster_SharedModule_exports</title>
<polygon fill="none" stroke="black" points="1611,-287 1611,-339 1860,-339 1860,-287 1611,-287"/>
</g>
<!-- AppComponent -->
<g id="node1" class="node">
<title>AppComponent</title>
<polygon fill="#ffffb3" stroke="black" points="1578.94,-263 1473.06,-263 1473.06,-227 1578.94,-227 1578.94,-263"/>
<text text-anchor="middle" x="1526" y="-240.8" font-family="Times,serif" font-size="14.00">AppComponent</text>
</g>
<!-- AppModule -->
<g id="node3" class="node">
<title>AppModule</title>
<polygon fill="#8dd3c7" stroke="black" points="1255.66,-331 1252.66,-335 1231.66,-335 1228.66,-331 1172.34,-331 1172.34,-295 1255.66,-295 1255.66,-331"/>
<text text-anchor="middle" x="1214" y="-308.8" font-family="Times,serif" font-size="14.00">AppModule</text>
</g>
<!-- AppComponent&#45;&gt;AppModule -->
<g id="edge1" class="edge">
<title>AppComponent&#45;&gt;AppModule</title>
<path fill="none" stroke="black" d="M1526,-263.25C1526,-286.02 1526,-322 1526,-322 1526,-322 1265.75,-322 1265.75,-322"/>
<polygon fill="black" stroke="black" points="1265.75,-318.5 1255.75,-322 1265.75,-325.5 1265.75,-318.5"/>
</g>
<!-- AppMainComponent -->
<g id="node2" class="node">
<title>AppMainComponent</title>
<polygon fill="#ffffb3" stroke="black" points="1455.49,-263 1320.51,-263 1320.51,-227 1455.49,-227 1455.49,-263"/>
<text text-anchor="middle" x="1388" y="-240.8" font-family="Times,serif" font-size="14.00">AppMainComponent</text>
</g>
<!-- AppMainComponent&#45;&gt;AppModule -->
<g id="edge2" class="edge">
<title>AppMainComponent&#45;&gt;AppModule</title>
<path fill="none" stroke="black" d="M1388,-263.22C1388,-283.37 1388,-313 1388,-313 1388,-313 1265.68,-313 1265.68,-313"/>
<polygon fill="black" stroke="black" points="1265.68,-309.5 1255.68,-313 1265.68,-316.5 1265.68,-309.5"/>
</g>
<!-- AppComponent  -->
<g id="node7" class="node">
<title>AppComponent </title>
<polygon fill="#80b1d3" stroke="black" points="1268.44,-399 1159.56,-399 1159.56,-363 1268.44,-363 1268.44,-399"/>
<text text-anchor="middle" x="1214" y="-376.8" font-family="Times,serif" font-size="14.00">AppComponent </text>
</g>
<!-- AppModule&#45;&gt;AppComponent  -->
<g id="edge6" class="edge">
<title>AppModule&#45;&gt;AppComponent </title>
<path fill="none" stroke="black" stroke-dasharray="1,5" d="M1214,-331.22C1214,-331.22 1214,-352.73 1214,-352.73"/>
<polygon fill="black" stroke="black" points="1210.5,-352.73 1214,-362.73 1217.5,-352.73 1210.5,-352.73"/>
</g>
<!-- AppRoutingModule -->
<g id="node4" class="node">
<title>AppRoutingModule</title>
<polygon fill="#8dd3c7" stroke="black" points="1137.27,-198 1134.27,-202 1113.27,-202 1110.27,-198 1008.73,-198 1008.73,-162 1137.27,-162 1137.27,-198"/>
<text text-anchor="middle" x="1073" y="-175.8" font-family="Times,serif" font-size="14.00">AppRoutingModule</text>
</g>
<!-- AppRoutingModule&#45;&gt;AppModule -->
<g id="edge3" class="edge">
<title>AppRoutingModule&#45;&gt;AppModule</title>
<path fill="none" stroke="black" d="M1073,-198.2C1073,-233.31 1073,-307 1073,-307 1073,-307 1162.08,-307 1162.08,-307"/>
<polygon fill="black" stroke="black" points="1162.08,-310.5 1172.08,-307 1162.08,-303.5 1162.08,-310.5"/>
</g>
<!-- AtomicDesignModule -->
<g id="node5" class="node">
<title>AtomicDesignModule</title>
<polygon fill="#8dd3c7" stroke="black" points="1296.7,-198 1293.7,-202 1272.7,-202 1269.7,-198 1155.3,-198 1155.3,-162 1296.7,-162 1296.7,-198"/>
<text text-anchor="middle" x="1226" y="-175.8" font-family="Times,serif" font-size="14.00">AtomicDesignModule</text>
</g>
<!-- AtomicDesignModule&#45;&gt;AppModule -->
<g id="edge4" class="edge">
<title>AtomicDesignModule&#45;&gt;AppModule</title>
<path fill="none" stroke="black" d="M1189.92,-198.21C1189.92,-198.21 1189.92,-284.58 1189.92,-284.58"/>
<polygon fill="black" stroke="black" points="1186.42,-284.58 1189.92,-294.58 1193.42,-284.58 1186.42,-284.58"/>
</g>
<!-- SharedModule -->
<g id="node6" class="node">
<title>SharedModule</title>
<polygon fill="#8dd3c7" stroke="black" points="1297.42,-263 1294.42,-267 1273.42,-267 1270.42,-263 1198.58,-263 1198.58,-227 1297.42,-227 1297.42,-263"/>
<text text-anchor="middle" x="1248" y="-240.8" font-family="Times,serif" font-size="14.00">SharedModule</text>
</g>
<!-- AtomicDesignModule&#45;&gt;SharedModule -->
<g id="edge25" class="edge">
<title>AtomicDesignModule&#45;&gt;SharedModule</title>
<path fill="none" stroke="black" d="M1231.39,-198.11C1231.39,-198.11 1231.39,-216.99 1231.39,-216.99"/>
<polygon fill="black" stroke="black" points="1227.89,-216.99 1231.39,-226.99 1234.89,-216.99 1227.89,-216.99"/>
</g>
<!-- FormAdvancedSearchComponent  -->
<g id="node16" class="node">
<title>FormAdvancedSearchComponent </title>
<polygon fill="#fb8072" stroke="black" points="742,-122 532,-122 532,-86 742,-86 742,-122"/>
<text text-anchor="middle" x="637" y="-99.8" font-family="Times,serif" font-size="14.00">FormAdvancedSearchComponent </text>
</g>
<!-- AtomicDesignModule&#45;&gt;FormAdvancedSearchComponent  -->
<g id="edge15" class="edge">
<title>AtomicDesignModule&#45;&gt;FormAdvancedSearchComponent </title>
<path fill="none" stroke="black" stroke-dasharray="5,2" d="M1177.81,-161.87C1177.81,-151.29 1177.81,-140 1177.81,-140 1177.81,-140 703.67,-140 703.67,-140 703.67,-140 703.67,-132.42 703.67,-132.42"/>
<polygon fill="black" stroke="black" points="707.17,-132.42 703.67,-122.42 700.17,-132.42 707.17,-132.42"/>
</g>
<!-- LoaderComponent  -->
<g id="node17" class="node">
<title>LoaderComponent </title>
<polygon fill="#fb8072" stroke="black" points="514.48,-122 389.52,-122 389.52,-86 514.48,-86 514.48,-122"/>
<text text-anchor="middle" x="452" y="-99.8" font-family="Times,serif" font-size="14.00">LoaderComponent </text>
</g>
<!-- AtomicDesignModule&#45;&gt;LoaderComponent  -->
<g id="edge16" class="edge">
<title>AtomicDesignModule&#45;&gt;LoaderComponent </title>
<path fill="none" stroke="black" stroke-dasharray="5,2" d="M1172.21,-161.68C1172.21,-153.21 1172.21,-145 1172.21,-145 1172.21,-145 449.21,-145 449.21,-145 449.21,-145 449.21,-132.1 449.21,-132.1"/>
<polygon fill="black" stroke="black" points="452.71,-132.1 449.21,-122.1 445.71,-132.1 452.71,-132.1"/>
</g>
<!-- ModalNewModifiedComponent  -->
<g id="node18" class="node">
<title>ModalNewModifiedComponent </title>
<polygon fill="#fb8072" stroke="black" points="371.91,-122 172.09,-122 172.09,-86 371.91,-86 371.91,-122"/>
<text text-anchor="middle" x="272" y="-99.8" font-family="Times,serif" font-size="14.00">ModalNewModifiedComponent </text>
</g>
<!-- AtomicDesignModule&#45;&gt;ModalNewModifiedComponent  -->
<g id="edge17" class="edge">
<title>AtomicDesignModule&#45;&gt;ModalNewModifiedComponent </title>
<path fill="none" stroke="black" stroke-dasharray="5,2" d="M1166.6,-161.8C1166.6,-155.97 1166.6,-151 1166.6,-151 1166.6,-151 271.69,-151 271.69,-151 271.69,-151 271.69,-132.04 271.69,-132.04"/>
<polygon fill="black" stroke="black" points="275.19,-132.04 271.69,-122.04 268.19,-132.04 275.19,-132.04"/>
</g>
<!-- SideBarComponent  -->
<g id="node19" class="node">
<title>SideBarComponent </title>
<polygon fill="#fb8072" stroke="black" points="153.93,-122 24.07,-122 24.07,-86 153.93,-86 153.93,-122"/>
<text text-anchor="middle" x="89" y="-99.8" font-family="Times,serif" font-size="14.00">SideBarComponent </text>
</g>
<!-- AtomicDesignModule&#45;&gt;SideBarComponent  -->
<g id="edge18" class="edge">
<title>AtomicDesignModule&#45;&gt;SideBarComponent </title>
<path fill="none" stroke="black" stroke-dasharray="5,2" d="M1161,-161.88C1161,-159.03 1161,-157 1161,-157 1161,-157 89,-157 89,-157 89,-157 89,-132.24 89,-132.24"/>
<polygon fill="black" stroke="black" points="92.5,-132.24 89,-122.24 85.5,-132.24 92.5,-132.24"/>
</g>
<!-- TableCrudComponent  -->
<g id="node20" class="node">
<title>TableCrudComponent </title>
<polygon fill="#fb8072" stroke="black" points="1050.2,-122 905.8,-122 905.8,-86 1050.2,-86 1050.2,-122"/>
<text text-anchor="middle" x="978" y="-99.8" font-family="Times,serif" font-size="14.00">TableCrudComponent </text>
</g>
<!-- AtomicDesignModule&#45;&gt;TableCrudComponent  -->
<g id="edge19" class="edge">
<title>AtomicDesignModule&#45;&gt;TableCrudComponent </title>
<path fill="none" stroke="black" stroke-dasharray="5,2" d="M1189.01,-161.81C1189.01,-146.82 1189.01,-128 1189.01,-128 1189.01,-128 1029.48,-128 1029.48,-128 1029.48,-128 1029.48,-127.42 1029.48,-127.42"/>
<polygon fill="black" stroke="black" points="1032.98,-132.19 1029.48,-122.19 1025.98,-132.19 1032.98,-132.19"/>
</g>
<!-- TopBarComponent  -->
<g id="node21" class="node">
<title>TopBarComponent </title>
<polygon fill="#fb8072" stroke="black" points="887.6,-122 760.4,-122 760.4,-86 887.6,-86 887.6,-122"/>
<text text-anchor="middle" x="824" y="-99.8" font-family="Times,serif" font-size="14.00">TopBarComponent </text>
</g>
<!-- AtomicDesignModule&#45;&gt;TopBarComponent  -->
<g id="edge20" class="edge">
<title>AtomicDesignModule&#45;&gt;TopBarComponent </title>
<path fill="none" stroke="black" stroke-dasharray="5,2" d="M1183.41,-161.82C1183.41,-148.96 1183.41,-134 1183.41,-134 1183.41,-134 851.65,-134 851.65,-134 851.65,-134 851.65,-132.14 851.65,-132.14"/>
<polygon fill="black" stroke="black" points="855.15,-132.14 851.65,-122.14 848.15,-132.14 855.15,-132.14"/>
</g>
<!-- SharedModule&#45;&gt;AppModule -->
<g id="edge5" class="edge">
<title>SharedModule&#45;&gt;AppModule</title>
<path fill="none" stroke="black" d="M1227.31,-263.22C1227.31,-263.22 1227.31,-284.73 1227.31,-284.73"/>
<polygon fill="black" stroke="black" points="1223.81,-284.73 1227.31,-294.73 1230.81,-284.73 1223.81,-284.73"/>
</g>
<!-- PagesModule -->
<g id="node24" class="node">
<title>PagesModule</title>
<polygon fill="#8dd3c7" stroke="black" points="701.21,-331 698.21,-335 677.21,-335 674.21,-331 608.79,-331 608.79,-295 701.21,-295 701.21,-331"/>
<text text-anchor="middle" x="655" y="-308.8" font-family="Times,serif" font-size="14.00">PagesModule</text>
</g>
<!-- SharedModule&#45;&gt;PagesModule -->
<g id="edge24" class="edge">
<title>SharedModule&#45;&gt;PagesModule</title>
<path fill="none" stroke="black" d="M1198.32,-239C1181.02,-239 1165.85,-239 1165.85,-239 1165.85,-239 1165.85,-319 1165.85,-319 1165.85,-319 711.24,-319 711.24,-319"/>
<polygon fill="black" stroke="black" points="711.24,-315.5 701.24,-319 711.24,-322.5 711.24,-315.5"/>
</g>
<!-- AtomicDesignModule  -->
<g id="node26" class="node">
<title>AtomicDesignModule </title>
<polygon fill="#fb8072" stroke="black" points="1852.2,-331 1707.8,-331 1707.8,-295 1852.2,-295 1852.2,-331"/>
<text text-anchor="middle" x="1780" y="-308.8" font-family="Times,serif" font-size="14.00">AtomicDesignModule </text>
</g>
<!-- SharedModule&#45;&gt;AtomicDesignModule  -->
<g id="edge27" class="edge">
<title>SharedModule&#45;&gt;AtomicDesignModule </title>
<path fill="none" stroke="black" stroke-dasharray="5,2" d="M1278.05,-263.19C1278.05,-271.28 1278.05,-279 1278.05,-279 1278.05,-279 1742.95,-279 1742.95,-279 1742.95,-279 1742.95,-284.81 1742.95,-284.81"/>
<polygon fill="black" stroke="black" points="1739.45,-284.81 1742.95,-294.81 1746.45,-284.81 1739.45,-284.81"/>
</g>
<!-- DatePipe  -->
<g id="node27" class="node">
<title>DatePipe </title>
<polygon fill="#fb8072" stroke="black" points="1689.31,-331 1618.69,-331 1618.69,-295 1689.31,-295 1689.31,-331"/>
<text text-anchor="middle" x="1654" y="-308.8" font-family="Times,serif" font-size="14.00">DatePipe </text>
</g>
<!-- SharedModule&#45;&gt;DatePipe  -->
<g id="edge28" class="edge">
<title>SharedModule&#45;&gt;DatePipe </title>
<path fill="none" stroke="black" stroke-dasharray="5,2" d="M1287.63,-263.02C1287.63,-280.37 1287.63,-304 1287.63,-304 1287.63,-304 1608.54,-304 1608.54,-304"/>
<polygon fill="black" stroke="black" points="1608.54,-307.5 1618.54,-304 1608.54,-300.5 1608.54,-307.5"/>
</g>
<!-- RequestInterceptor -->
<g id="node8" class="node">
<title>RequestInterceptor</title>
<ellipse fill="#fdb462" stroke="black" cx="900" cy="-245" rx="84.51" ry="18"/>
<text text-anchor="middle" x="900" y="-240.8" font-family="Times,serif" font-size="14.00">RequestInterceptor</text>
</g>
<!-- RequestInterceptor&#45;&gt;AppModule -->
<g id="edge7" class="edge">
<title>RequestInterceptor&#45;&gt;AppModule</title>
<path fill="none" stroke="black" d="M979.78,-251C1062.87,-251 1181.04,-251 1181.04,-251 1181.04,-251 1181.04,-284.73 1181.04,-284.73"/>
<polygon fill="black" stroke="black" points="1177.54,-284.73 1181.04,-294.73 1184.54,-284.73 1177.54,-284.73"/>
</g>
<!-- FormAdvancedSearchComponent -->
<g id="node9" class="node">
<title>FormAdvancedSearchComponent</title>
<polygon fill="#ffffb3" stroke="black" points="1778,-122 1572,-122 1572,-86 1778,-86 1778,-122"/>
<text text-anchor="middle" x="1675" y="-99.8" font-family="Times,serif" font-size="14.00">FormAdvancedSearchComponent</text>
</g>
<!-- FormAdvancedSearchComponent&#45;&gt;AtomicDesignModule -->
<g id="edge8" class="edge">
<title>FormAdvancedSearchComponent&#45;&gt;AtomicDesignModule</title>
<path fill="none" stroke="black" d="M1598.66,-122.03C1598.66,-142.77 1598.66,-174 1598.66,-174 1598.66,-174 1306.97,-174 1306.97,-174"/>
<polygon fill="black" stroke="black" points="1306.97,-170.5 1296.97,-174 1306.97,-177.5 1306.97,-170.5"/>
</g>
<!-- LoaderComponent -->
<g id="node10" class="node">
<title>LoaderComponent</title>
<polygon fill="#ffffb3" stroke="black" points="1553.47,-122 1432.53,-122 1432.53,-86 1553.47,-86 1553.47,-122"/>
<text text-anchor="middle" x="1493" y="-99.8" font-family="Times,serif" font-size="14.00">LoaderComponent</text>
</g>
<!-- LoaderComponent&#45;&gt;AtomicDesignModule -->
<g id="edge9" class="edge">
<title>LoaderComponent&#45;&gt;AtomicDesignModule</title>
<path fill="none" stroke="black" d="M1444,-122.17C1444,-141.09 1444,-168 1444,-168 1444,-168 1306.78,-168 1306.78,-168"/>
<polygon fill="black" stroke="black" points="1306.78,-164.5 1296.78,-168 1306.78,-171.5 1306.78,-164.5"/>
</g>
<!-- ModalNewModifiedComponent -->
<g id="node11" class="node">
<title>ModalNewModifiedComponent</title>
<polygon fill="#ffffb3" stroke="black" points="1414.41,-122 1217.59,-122 1217.59,-86 1414.41,-86 1414.41,-122"/>
<text text-anchor="middle" x="1316" y="-99.8" font-family="Times,serif" font-size="14.00">ModalNewModifiedComponent</text>
</g>
<!-- ModalNewModifiedComponent&#45;&gt;AtomicDesignModule -->
<g id="edge10" class="edge">
<title>ModalNewModifiedComponent&#45;&gt;AtomicDesignModule</title>
<path fill="none" stroke="black" d="M1257.2,-122.01C1257.2,-122.01 1257.2,-151.85 1257.2,-151.85"/>
<polygon fill="black" stroke="black" points="1253.7,-151.85 1257.2,-161.85 1260.7,-151.85 1253.7,-151.85"/>
</g>
<!-- SideBarComponent -->
<g id="node12" class="node">
<title>SideBarComponent</title>
<polygon fill="#ffffb3" stroke="black" points="1200.43,-122 1073.57,-122 1073.57,-86 1200.43,-86 1200.43,-122"/>
<text text-anchor="middle" x="1137" y="-99.8" font-family="Times,serif" font-size="14.00">SideBarComponent</text>
</g>
<!-- SideBarComponent&#45;&gt;AtomicDesignModule -->
<g id="edge11" class="edge">
<title>SideBarComponent&#45;&gt;AtomicDesignModule</title>
<path fill="none" stroke="black" d="M1194.61,-122.01C1194.61,-122.01 1194.61,-151.85 1194.61,-151.85"/>
<polygon fill="black" stroke="black" points="1191.11,-151.85 1194.61,-161.85 1198.11,-151.85 1191.11,-151.85"/>
</g>
<!-- TableCrudComponent -->
<g id="node13" class="node">
<title>TableCrudComponent</title>
<polygon fill="#ffffb3" stroke="black" points="2079.7,-122 1938.3,-122 1938.3,-86 2079.7,-86 2079.7,-122"/>
<text text-anchor="middle" x="2009" y="-99.8" font-family="Times,serif" font-size="14.00">TableCrudComponent</text>
</g>
<!-- TableCrudComponent&#45;&gt;AtomicDesignModule -->
<g id="edge12" class="edge">
<title>TableCrudComponent&#45;&gt;AtomicDesignModule</title>
<path fill="none" stroke="black" d="M2009,-122.2C2009,-146.36 2009,-186 2009,-186 2009,-186 1306.87,-186 1306.87,-186"/>
<polygon fill="black" stroke="black" points="1306.87,-182.5 1296.87,-186 1306.87,-189.5 1306.87,-182.5"/>
</g>
<!-- TopBarComponent -->
<g id="node14" class="node">
<title>TopBarComponent</title>
<polygon fill="#ffffb3" stroke="black" points="1920.1,-122 1795.9,-122 1795.9,-86 1920.1,-86 1920.1,-122"/>
<text text-anchor="middle" x="1858" y="-99.8" font-family="Times,serif" font-size="14.00">TopBarComponent</text>
</g>
<!-- TopBarComponent&#45;&gt;AtomicDesignModule -->
<g id="edge13" class="edge">
<title>TopBarComponent&#45;&gt;AtomicDesignModule</title>
<path fill="none" stroke="black" d="M1824.15,-122.01C1824.15,-144.49 1824.15,-180 1824.15,-180 1824.15,-180 1306.67,-180 1306.67,-180"/>
<polygon fill="black" stroke="black" points="1306.67,-176.5 1296.67,-180 1306.67,-183.5 1306.67,-176.5"/>
</g>
<!-- DatePipe -->
<g id="node15" class="node">
<title>DatePipe</title>
<polygon fill="#8dd3c7" stroke="black" points="2171.81,-122 2168.81,-126 2147.81,-126 2144.81,-122 2104.19,-122 2104.19,-86 2171.81,-86 2171.81,-122"/>
<text text-anchor="middle" x="2138" y="-99.8" font-family="Times,serif" font-size="14.00">DatePipe</text>
</g>
<!-- DatePipe&#45;&gt;AtomicDesignModule -->
<g id="edge14" class="edge">
<title>DatePipe&#45;&gt;AtomicDesignModule</title>
<path fill="none" stroke="black" d="M2126.78,-122.23C2126.78,-148.01 2126.78,-192 2126.78,-192 2126.78,-192 1306.68,-192 1306.68,-192"/>
<polygon fill="black" stroke="black" points="1306.68,-188.5 1296.68,-192 1306.68,-195.5 1306.68,-188.5"/>
</g>
<!-- DatePipe&#45;&gt;SharedModule -->
<g id="edge26" class="edge">
<title>DatePipe&#45;&gt;SharedModule</title>
<path fill="none" stroke="black" d="M2149.22,-122.49C2149.22,-153.59 2149.22,-213 2149.22,-213 2149.22,-213 1264,-213 1264,-213 1264,-213 1264,-216.76 1264,-216.76"/>
<polygon fill="black" stroke="black" points="1260.5,-216.76 1264,-226.76 1267.5,-216.76 1260.5,-216.76"/>
</g>
<!-- CrudComponent -->
<g id="node22" class="node">
<title>CrudComponent</title>
<polygon fill="#ffffb3" stroke="black" points="774.83,-263 665.17,-263 665.17,-227 774.83,-227 774.83,-263"/>
<text text-anchor="middle" x="720" y="-240.8" font-family="Times,serif" font-size="14.00">CrudComponent</text>
</g>
<!-- CrudComponent&#45;&gt;PagesModule -->
<g id="edge21" class="edge">
<title>CrudComponent&#45;&gt;PagesModule</title>
<path fill="none" stroke="black" d="M683.22,-263.22C683.22,-263.22 683.22,-284.73 683.22,-284.73"/>
<polygon fill="black" stroke="black" points="679.72,-284.73 683.22,-294.73 686.72,-284.73 679.72,-284.73"/>
</g>
<!-- LoginComponent -->
<g id="node23" class="node">
<title>LoginComponent</title>
<polygon fill="#ffffb3" stroke="black" points="647.28,-263 532.72,-263 532.72,-227 647.28,-227 647.28,-263"/>
<text text-anchor="middle" x="590" y="-240.8" font-family="Times,serif" font-size="14.00">LoginComponent</text>
</g>
<!-- LoginComponent&#45;&gt;PagesModule -->
<g id="edge22" class="edge">
<title>LoginComponent&#45;&gt;PagesModule</title>
<path fill="none" stroke="black" d="M628.14,-263.22C628.14,-263.22 628.14,-284.73 628.14,-284.73"/>
<polygon fill="black" stroke="black" points="624.64,-284.73 628.14,-294.73 631.64,-284.73 624.64,-284.73"/>
</g>
<!-- PagesRoutingModule -->
<g id="node25" class="node">
<title>PagesRoutingModule</title>
<polygon fill="#8dd3c7" stroke="black" points="508.82,-263 505.82,-267 484.82,-267 481.82,-263 371.18,-263 371.18,-227 508.82,-227 508.82,-263"/>
<text text-anchor="middle" x="440" y="-240.8" font-family="Times,serif" font-size="14.00">PagesRoutingModule</text>
</g>
<!-- PagesRoutingModule&#45;&gt;PagesModule -->
<g id="edge23" class="edge">
<title>PagesRoutingModule&#45;&gt;PagesModule</title>
<path fill="none" stroke="black" d="M440,-263.22C440,-283.37 440,-313 440,-313 440,-313 598.88,-313 598.88,-313"/>
<polygon fill="black" stroke="black" points="598.88,-316.5 608.88,-313 598.88,-309.5 598.88,-316.5"/>
</g>
</g>
</svg>
